<svg xmlns="http://www.w3.org/2000/svg" viewBox="0 0 111.7 111.7"><defs><style>.cls-1{fill:#fff;}.cls-2{fill:#040000;}</style></defs><g id="레이어_2" data-name="레이어 2"><g id="레이어_1-2" data-name="레이어 1"><circle class="cls-1" cx="55.85" cy="55.85" r="55.85" transform="matrix(0.97, -0.22, 0.22, 0.97, -11.11, 13.96)"/><path class="cls-2" d="M85.23,61.24l-16.64,24-6.7-9.64L89.53,36.83a5.88,5.88,0,0,0-.64-7.6L73.31,13.77H38.09L22.51,29.23a5.88,5.88,0,0,0-.65,7.6L49.51,75.58,42.8,85.22l-16.64-24L19,69.48l23.57,33.23L55.7,84.25l13.17,18.46L92.44,69.48Zm-20.34.21,8.15-18,8.34-4.63ZM85,32.92,72.79,39.65,69.67,27.57l7.08-3.95ZM69.18,40.58h-27l3.09-12.07H66.06Zm-34.58-17,7.07,3.95L38.59,39.64,26.45,32.91ZM30,38.81l8.34,4.61,8.16,18ZM42.7,44h26l-13,28.72Z"/></g></g></svg>